<svg height="3406" width="720" xmlns="http://www.w3.org/2000/svg">
<rect height="3406" fill="#555" width="720"></rect>
<text fill="#7f7" font-family="Courier New" font-size="12" xml:space="preserve">
<tspan x="10" y="26">└─┬ gulp-plato@1.0.2 </tspan>
<tspan x="10" y="42">  ├─┬ gulp-util@3.0.8 </tspan>
<tspan x="10" y="58">  │ ├── array-differ@1.0.0 </tspan>
<tspan x="10" y="74">  │ ├── array-uniq@1.0.3 </tspan>
<tspan x="10" y="90">  │ ├── beeper@1.1.1 </tspan>
<tspan x="10" y="106">  │ ├─┬ chalk@1.1.3 </tspan>
<tspan x="10" y="122">  │ │ ├── ansi-styles@2.2.1 </tspan>
<tspan x="10" y="138">  │ │ ├── escape-string-regexp@1.0.5 </tspan>
<tspan x="10" y="154">  │ │ ├─┬ has-ansi@2.0.0 </tspan>
<tspan x="10" y="170">  │ │ │ └── ansi-regex@2.1.1 </tspan>
<tspan x="10" y="186">  │ │ ├── strip-ansi@3.0.1 </tspan>
<tspan x="10" y="202">  │ │ └── supports-color@2.0.0 </tspan>
<tspan x="10" y="218">  │ ├── dateformat@2.0.0 </tspan>
<tspan x="10" y="234">  │ ├─┬ fancy-log@1.3.0 </tspan>
<tspan x="10" y="250">  │ │ └── time-stamp@1.0.1 </tspan>
<tspan x="10" y="266">  │ ├─┬ gulplog@1.0.0 </tspan>
<tspan x="10" y="282">  │ │ └── glogg@1.0.0 </tspan>
<tspan x="10" y="298">  │ ├─┬ has-gulplog@0.1.0 </tspan>
<tspan x="10" y="314">  │ │ └── sparkles@1.0.0 </tspan>
<tspan x="10" y="330">  │ ├── lodash._reescape@3.0.0 </tspan>
<tspan x="10" y="346">  │ ├── lodash._reevaluate@3.0.0 </tspan>
<tspan x="10" y="362">  │ ├── lodash._reinterpolate@3.0.0 </tspan>
<tspan x="10" y="378">  │ ├─┬ lodash.template@3.6.2 </tspan>
<tspan x="10" y="394">  │ │ ├── lodash._basecopy@3.0.1 </tspan>
<tspan x="10" y="410">  │ │ ├── lodash._basetostring@3.0.1 </tspan>
<tspan x="10" y="426">  │ │ ├── lodash._basevalues@3.0.0 </tspan>
<tspan x="10" y="442">  │ │ ├── lodash._isiterateecall@3.0.9 </tspan>
<tspan x="10" y="458">  │ │ ├─┬ lodash.escape@3.2.0 </tspan>
<tspan x="10" y="474">  │ │ │ └── lodash._root@3.0.1 </tspan>
<tspan x="10" y="490">  │ │ ├─┬ lodash.keys@3.1.2 </tspan>
<tspan x="10" y="506">  │ │ │ ├── lodash._getnative@3.9.1 </tspan>
<tspan x="10" y="522">  │ │ │ ├── lodash.isarguments@3.1.0 </tspan>
<tspan x="10" y="538">  │ │ │ └── lodash.isarray@3.0.4 </tspan>
<tspan x="10" y="554">  │ │ ├── lodash.restparam@3.6.1 </tspan>
<tspan x="10" y="570">  │ │ └── lodash.templatesettings@3.1.1 </tspan>
<tspan x="10" y="586">  │ ├── minimist@1.2.0 </tspan>
<tspan x="10" y="602">  │ ├─┬ multipipe@0.1.2 </tspan>
<tspan x="10" y="618">  │ │ └─┬ duplexer2@0.0.2 </tspan>
<tspan x="10" y="634">  │ │   └── readable-stream@1.1.14 </tspan>
<tspan x="10" y="650">  │ ├── object-assign@3.0.0 </tspan>
<tspan x="10" y="666">  │ ├── replace-ext@0.0.1 </tspan>
<tspan x="10" y="682">  │ ├─┬ through2@2.0.3 </tspan>
<tspan x="10" y="698">  │ │ └─┬ readable-stream@2.2.6 </tspan>
<tspan x="10" y="714">  │ │   ├── buffer-shims@1.0.0 </tspan>
<tspan x="10" y="730">  │ │   ├── isarray@1.0.0 </tspan>
<tspan x="10" y="746">  │ │   ├── process-nextick-args@1.0.7 </tspan>
<tspan x="10" y="762">  │ │   └── util-deprecate@1.0.2 </tspan>
<tspan x="10" y="778">  │ └─┬ vinyl@0.5.3 </tspan>
<tspan x="10" y="794">  │   ├── clone@1.0.2 </tspan>
<tspan x="10" y="810">  │   └── clone-stats@0.0.1 </tspan>
<tspan x="10" y="826">  ├─┬ plato@1.7.0 </tspan>
<tspan x="10" y="842">  │ ├─┬ eslint@3.0.1 </tspan>
<tspan x="10" y="858">  │ │ ├─┬ concat-stream@1.6.0 </tspan>
<tspan x="10" y="874">  │ │ │ ├─┬ readable-stream@2.2.6 </tspan>
<tspan x="10" y="890">  │ │ │ │ └── isarray@1.0.0 </tspan>
<tspan x="10" y="906">  │ │ │ └── typedarray@0.0.6 </tspan>
<tspan x="10" y="922">  │ │ ├─┬ debug@2.6.3 </tspan>
<tspan x="10" y="938">  │ │ │ └── ms@0.7.2 </tspan>
<tspan x="10" y="954">  │ │ ├─┬ doctrine@1.5.0 </tspan>
<tspan x="10" y="970">  │ │ │ └── isarray@1.0.0 </tspan>
<tspan x="10" y="986">  │ │ ├─┬ es6-map@0.1.5 </tspan>
<tspan x="10" y="1002">  │ │ │ ├── d@1.0.0 </tspan>
<tspan x="10" y="1018">  │ │ │ ├── es5-ext@0.10.15 </tspan>
<tspan x="10" y="1034">  │ │ │ ├── es6-iterator@2.0.1 </tspan>
<tspan x="10" y="1050">  │ │ │ ├── es6-set@0.1.5 </tspan>
<tspan x="10" y="1066">  │ │ │ ├── es6-symbol@3.1.1 </tspan>
<tspan x="10" y="1082">  │ │ │ └── event-emitter@0.3.5 </tspan>
<tspan x="10" y="1098">  │ │ ├─┬ escope@3.6.0 </tspan>
<tspan x="10" y="1114">  │ │ │ ├── es6-weak-map@2.0.2 </tspan>
<tspan x="10" y="1130">  │ │ │ └─┬ esrecurse@4.1.0 </tspan>
<tspan x="10" y="1146">  │ │ │   ├── estraverse@4.1.1 </tspan>
<tspan x="10" y="1162">  │ │ │   └── object-assign@4.1.1 </tspan>
<tspan x="10" y="1178">  │ │ ├─┬ espree@3.4.1 </tspan>
<tspan x="10" y="1194">  │ │ │ ├── acorn@5.0.3 </tspan>
<tspan x="10" y="1210">  │ │ │ └─┬ acorn-jsx@3.0.1 </tspan>
<tspan x="10" y="1226">  │ │ │   └── acorn@3.3.0 </tspan>
<tspan x="10" y="1242">  │ │ ├── estraverse@4.2.0 </tspan>
<tspan x="10" y="1258">  │ │ ├── esutils@2.0.2 </tspan>
<tspan x="10" y="1274">  │ │ ├─┬ file-entry-cache@1.3.1 </tspan>
<tspan x="10" y="1290">  │ │ │ ├─┬ flat-cache@1.2.2 </tspan>
<tspan x="10" y="1306">  │ │ │ │ ├── circular-json@0.3.1 </tspan>
<tspan x="10" y="1322">  │ │ │ │ ├─┬ del@2.2.2 </tspan>
<tspan x="10" y="1338">  │ │ │ │ │ ├─┬ globby@5.0.0 </tspan>
<tspan x="10" y="1354">  │ │ │ │ │ │ ├── array-union@1.0.2 </tspan>
<tspan x="10" y="1370">  │ │ │ │ │ │ ├── arrify@1.0.1 </tspan>
<tspan x="10" y="1386">  │ │ │ │ │ │ └── object-assign@4.1.1 </tspan>
<tspan x="10" y="1402">  │ │ │ │ │ ├── is-path-cwd@1.0.0 </tspan>
<tspan x="10" y="1418">  │ │ │ │ │ ├─┬ is-path-in-cwd@1.0.0 </tspan>
<tspan x="10" y="1434">  │ │ │ │ │ │ └── is-path-inside@1.0.0 </tspan>
<tspan x="10" y="1450">  │ │ │ │ │ ├── object-assign@4.1.1 </tspan>
<tspan x="10" y="1466">  │ │ │ │ │ ├── pify@2.3.0 </tspan>
<tspan x="10" y="1482">  │ │ │ │ │ └─┬ pinkie-promise@2.0.1 </tspan>
<tspan x="10" y="1498">  │ │ │ │ │   └── pinkie@2.0.4 </tspan>
<tspan x="10" y="1514">  │ │ │ │ └── write@0.2.1 </tspan>
<tspan x="10" y="1530">  │ │ │ └── object-assign@4.1.1 </tspan>
<tspan x="10" y="1546">  │ │ ├── globals@9.17.0 </tspan>
<tspan x="10" y="1562">  │ │ ├── ignore@3.2.6 </tspan>
<tspan x="10" y="1578">  │ │ ├── imurmurhash@0.1.4 </tspan>
<tspan x="10" y="1594">  │ │ ├─┬ inquirer@0.12.0 </tspan>
<tspan x="10" y="1610">  │ │ │ ├── ansi-escapes@1.4.0 </tspan>
<tspan x="10" y="1626">  │ │ │ ├─┬ cli-cursor@1.0.2 </tspan>
<tspan x="10" y="1642">  │ │ │ │ └─┬ restore-cursor@1.0.1 </tspan>
<tspan x="10" y="1658">  │ │ │ │   ├── exit-hook@1.1.1 </tspan>
<tspan x="10" y="1674">  │ │ │ │   └── onetime@1.1.0 </tspan>
<tspan x="10" y="1690">  │ │ │ ├── cli-width@2.1.0 </tspan>
<tspan x="10" y="1706">  │ │ │ ├─┬ figures@1.7.0 </tspan>
<tspan x="10" y="1722">  │ │ │ │ └── object-assign@4.1.1 </tspan>
<tspan x="10" y="1738">  │ │ │ ├─┬ readline2@1.0.1 </tspan>
<tspan x="10" y="1754">  │ │ │ │ ├── code-point-at@1.1.0 </tspan>
<tspan x="10" y="1770">  │ │ │ │ ├─┬ is-fullwidth-code-point@1.0.0 </tspan>
<tspan x="10" y="1786">  │ │ │ │ │ └── number-is-nan@1.0.1 </tspan>
<tspan x="10" y="1802">  │ │ │ │ └── mute-stream@0.0.5 </tspan>
<tspan x="10" y="1818">  │ │ │ ├── run-async@0.1.0 </tspan>
<tspan x="10" y="1834">  │ │ │ ├── rx-lite@3.1.2 </tspan>
<tspan x="10" y="1850">  │ │ │ ├── string-width@1.0.2 </tspan>
<tspan x="10" y="1866">  │ │ │ └── through@2.3.8 </tspan>
<tspan x="10" y="1882">  │ │ ├─┬ is-my-json-valid@2.16.0 </tspan>
<tspan x="10" y="1898">  │ │ │ ├── generate-function@2.0.0 </tspan>
<tspan x="10" y="1914">  │ │ │ ├─┬ generate-object-property@1.2.0 </tspan>
<tspan x="10" y="1930">  │ │ │ │ └── is-property@1.0.2 </tspan>
<tspan x="10" y="1946">  │ │ │ └── jsonpointer@4.0.1 </tspan>
<tspan x="10" y="1962">  │ │ ├─┬ is-resolvable@1.0.0 </tspan>
<tspan x="10" y="1978">  │ │ │ └── tryit@1.0.3 </tspan>
<tspan x="10" y="1994">  │ │ ├─┬ js-yaml@3.8.3 </tspan>
<tspan x="10" y="2010">  │ │ │ ├─┬ argparse@1.0.9 </tspan>
<tspan x="10" y="2026">  │ │ │ │ └── sprintf-js@1.0.3 </tspan>
<tspan x="10" y="2042">  │ │ │ └── esprima@3.1.3 </tspan>
<tspan x="10" y="2058">  │ │ ├─┬ json-stable-stringify@1.0.1 </tspan>
<tspan x="10" y="2074">  │ │ │ └── jsonify@0.0.0 </tspan>
<tspan x="10" y="2090">  │ │ ├─┬ levn@0.3.0 </tspan>
<tspan x="10" y="2106">  │ │ │ ├── prelude-ls@1.1.2 </tspan>
<tspan x="10" y="2122">  │ │ │ └── type-check@0.3.2 </tspan>
<tspan x="10" y="2138">  │ │ ├─┬ mkdirp@0.5.1 </tspan>
<tspan x="10" y="2154">  │ │ │ └── minimist@0.0.8 </tspan>
<tspan x="10" y="2170">  │ │ ├─┬ optionator@0.8.2 </tspan>
<tspan x="10" y="2186">  │ │ │ ├── deep-is@0.1.3 </tspan>
<tspan x="10" y="2202">  │ │ │ ├── fast-levenshtein@2.0.6 </tspan>
<tspan x="10" y="2218">  │ │ │ └── wordwrap@1.0.0 </tspan>
<tspan x="10" y="2234">  │ │ ├── path-is-inside@1.0.2 </tspan>
<tspan x="10" y="2250">  │ │ ├── pluralize@1.2.1 </tspan>
<tspan x="10" y="2266">  │ │ ├── progress@1.1.8 </tspan>
<tspan x="10" y="2282">  │ │ ├─┬ require-uncached@1.0.3 </tspan>
<tspan x="10" y="2298">  │ │ │ ├─┬ caller-path@0.1.0 </tspan>
<tspan x="10" y="2314">  │ │ │ │ └── callsites@0.2.0 </tspan>
<tspan x="10" y="2330">  │ │ │ └── resolve-from@1.0.1 </tspan>
<tspan x="10" y="2346">  │ │ ├── shelljs@0.6.1 </tspan>
<tspan x="10" y="2362">  │ │ ├── strip-bom@3.0.0 </tspan>
<tspan x="10" y="2378">  │ │ ├── strip-json-comments@1.0.4 </tspan>
<tspan x="10" y="2394">  │ │ ├─┬ table@3.8.3 </tspan>
<tspan x="10" y="2410">  │ │ │ ├─┬ ajv@4.11.5 </tspan>
<tspan x="10" y="2426">  │ │ │ │ └── co@4.6.0 </tspan>
<tspan x="10" y="2442">  │ │ │ ├── ajv-keywords@1.5.1 </tspan>
<tspan x="10" y="2458">  │ │ │ ├── slice-ansi@0.0.4 </tspan>
<tspan x="10" y="2474">  │ │ │ └─┬ string-width@2.0.0 </tspan>
<tspan x="10" y="2490">  │ │ │   └── is-fullwidth-code-point@2.0.0 </tspan>
<tspan x="10" y="2506">  │ │ ├── text-table@0.2.0 </tspan>
<tspan x="10" y="2522">  │ │ └─┬ user-home@2.0.0 </tspan>
<tspan x="10" y="2538">  │ │   └── os-homedir@1.0.2 </tspan>
<tspan x="10" y="2554">  │ ├─┬ fs-extra@0.30.0 </tspan>
<tspan x="10" y="2570">  │ │ ├── graceful-fs@4.1.11 </tspan>
<tspan x="10" y="2586">  │ │ ├── jsonfile@2.4.0 </tspan>
<tspan x="10" y="2602">  │ │ ├── klaw@1.3.1 </tspan>
<tspan x="10" y="2618">  │ │ ├── path-is-absolute@1.0.1 </tspan>
<tspan x="10" y="2634">  │ │ └── rimraf@2.6.1 </tspan>
<tspan x="10" y="2650">  │ ├─┬ glob@7.0.6 </tspan>
<tspan x="10" y="2666">  │ │ ├── fs.realpath@1.0.0 </tspan>
<tspan x="10" y="2682">  │ │ ├─┬ inflight@1.0.6 </tspan>
<tspan x="10" y="2698">  │ │ │ └── wrappy@1.0.2 </tspan>
<tspan x="10" y="2714">  │ │ ├── inherits@2.0.3 </tspan>
<tspan x="10" y="2730">  │ │ ├─┬ minimatch@3.0.3 </tspan>
<tspan x="10" y="2746">  │ │ │ └─┬ brace-expansion@1.1.6 </tspan>
<tspan x="10" y="2762">  │ │ │   ├── balanced-match@0.4.2 </tspan>
<tspan x="10" y="2778">  │ │ │   └── concat-map@0.0.1 </tspan>
<tspan x="10" y="2794">  │ │ └── once@1.4.0 </tspan>
<tspan x="10" y="2810">  │ ├─┬ jshint@2.9.4 </tspan>
<tspan x="10" y="2826">  │ │ ├─┬ cli@1.0.1 </tspan>
<tspan x="10" y="2842">  │ │ │ └── glob@7.1.1 </tspan>
<tspan x="10" y="2858">  │ │ ├─┬ console-browserify@1.1.0 </tspan>
<tspan x="10" y="2874">  │ │ │ └── date-now@0.1.4 </tspan>
<tspan x="10" y="2890">  │ │ ├── exit@0.1.2 </tspan>
<tspan x="10" y="2906">  │ │ ├─┬ htmlparser2@3.8.3 </tspan>
<tspan x="10" y="2922">  │ │ │ ├── domelementtype@1.3.0 </tspan>
<tspan x="10" y="2938">  │ │ │ ├── domhandler@2.3.0 </tspan>
<tspan x="10" y="2954">  │ │ │ ├─┬ domutils@1.5.1 </tspan>
<tspan x="10" y="2970">  │ │ │ │ └─┬ dom-serializer@0.1.0 </tspan>
<tspan x="10" y="2986">  │ │ │ │   ├── domelementtype@1.1.3 </tspan>
<tspan x="10" y="3002">  │ │ │ │   └── entities@1.1.1 </tspan>
<tspan x="10" y="3018">  │ │ │ └── entities@1.0.0 </tspan>
<tspan x="10" y="3034">  │ │ ├── lodash@3.7.0 </tspan>
<tspan x="10" y="3050">  │ │ └── shelljs@0.3.0 </tspan>
<tspan x="10" y="3066">  │ ├── lodash@4.13.1 </tspan>
<tspan x="10" y="3082">  │ ├── posix-getopt@1.2.0 </tspan>
<tspan x="10" y="3098">  │ └─┬ typhonjs-escomplex@0.0.9 </tspan>
<tspan x="10" y="3114">  │   ├── babylon@6.16.1 </tspan>
<tspan x="10" y="3130">  │   ├─┬ commander@2.9.0 </tspan>
<tspan x="10" y="3146">  │   │ └── graceful-readlink@1.0.1 </tspan>
<tspan x="10" y="3162">  │   ├─┬ typhonjs-escomplex-module@0.0.9 </tspan>
<tspan x="10" y="3178">  │   │ ├── escomplex-plugin-metrics-module@0.0.10 </tspan>
<tspan x="10" y="3194">  │   │ ├─┬ escomplex-plugin-syntax-babylon@0.0.10 </tspan>
<tspan x="10" y="3210">  │   │ │ └── escomplex-plugin-syntax-estree@0.0.10 </tspan>
<tspan x="10" y="3226">  │   │ ├── typhonjs-ast-walker@0.1.1 </tspan>
<tspan x="10" y="3242">  │   │ ├── typhonjs-escomplex-commons@0.0.14 </tspan>
<tspan x="10" y="3258">  │   │ └── typhonjs-plugin-manager@0.0.3 </tspan>
<tspan x="10" y="3274">  │   └─┬ typhonjs-escomplex-project@0.0.9 </tspan>
<tspan x="10" y="3290">  │     └── escomplex-plugin-metrics-project@0.0.10 </tspan>
<tspan x="10" y="3306">  └─┬ through2@0.6.5 </tspan>
<tspan x="10" y="3322">    ├─┬ readable-stream@1.0.34 </tspan>
<tspan x="10" y="3338">    │ ├── core-util-is@1.0.2 </tspan>
<tspan x="10" y="3354">    │ ├── isarray@0.0.1 </tspan>
<tspan x="10" y="3370">    │ └── string_decoder@0.10.31 </tspan>
<tspan x="10" y="3386">    └── xtend@4.0.1</tspan>
</text>
</svg>
